<?xml version="1.0" encoding="UTF-8"?>
<svg version="1.1" viewBox="0 0 2000 2000" width="1280" height="1280" xmlns="http://www.w3.org/2000/svg">
<path transform="translate(0)" d="m0 0h2e3v2e3h-2e3z" fill="#FEFEFD"/>
<path transform="translate(882,656)" d="m0 0 3 2v2l4 2 99 99-2 4-10 10-4-2-89-89h-3l-7 8-96 96h-2l-2 4-8 7-8 9-12 12-6 5-1 4 25 25 7 8 46 46v2l4 2 19 19 3 1 9-10 76-76 7-8 5-4 4-5-1-4-40-40-2-1v-2l-4-2-13-13-4 2-39 39h-2l-2 4-8 7-24 24-4 5-7 6-3 4-4-2-10-10 2-4 103-103 4 2 33 33 7 8 23 23 8 7 1 2 4-2 155-155 4 1 138 138 6 5 7 8 18 18-3 5-11 12-14 14-4-2-9-10v-3l13-13-1-5-141-141-4 1-6 7-6 5-7 8-139 139-8 7-14 14-7 8-5 4-68 68 6 8 13 12 6 6v2l4-1 34-34 5-6 165-165h2l1-3 8-7 18-18 4 2 21 21v2h2v2h2l7 8 16 15 113 113 6 7-1 5-12 13-157 157-7-6-3-3v-2l-4-2-7-8-85-85 2-4 7-7 5-2 90 90 4 1 2-4 140-140-1-4-89-89-8-7-4-4-3-1-2 4-98 98 1 5 59 59 3-1 7-8 17-17h2l2-4h2l1-3 8-7 51-51 4 2 5 4v2l4 2v4l-8 8h-2l-2 4h-2l-2 4-88 88-4-2-72-72h-3l-1 2h-2l-1 3-8 7-132 132-1 2h-2l-2 4-6 5-2 3-3-1-7-8-160-160-2-3v-3h2l2-4 18-18 6-5 4 2 9 8-1 4-14 14 7 8 16 16v2l3 1 7 8 110 110 3 1 6-7 8-7 247-247-2-4-22-22-1-2-4 1-3 4h-2l-2 4-8 7-182 182-6 7-6 5-7 8-15 15-4-1-164-164-5-6 1-4 168-168z" fill="#C39F81"/>
<path transform="translate(1139,1147)" d="m0 0h21l15 5 10 7 6 5 7 10 5 10 3 13v14l-3 13-5 10-7 9-7 7-12 7-13 4h-18l-12-3-11-6-9-7-8-11-5-10-3-12v-17l3-11 7-14 9-10 14-9z" fill="#030202"/>
<path transform="translate(381,1148)" d="m0 0h44l16 4 9 6 4 5 3 8v17l-4 10-3 3 2 5 6 7 3 8v13l-3 9-4 6-9 6-9 3-22 2h-33z" fill="#030202"/>
<path transform="translate(964,1148)" d="m0 0h25v110l-4-2-16-13-14-11-13-11-14-11-8-6-3-1v57h-24l-1-2v-79l1-29h2v2l4 2 15 12 14 11 13 11 13 10 8 7h1z" fill="#030202"/>
<path transform="translate(1514,1148)" d="m0 0h24l1 39h30l1-39h24v111l-1 1h-23l-1-46h-30l-1 45-1 1h-22l-1-1z" fill="#030202"/>
<path transform="translate(698,1148)" d="m0 0h64v22h-39v22h37l1 4-1 18h-37v24h39v21l-1 1h-63z" fill="#030202"/>
<path transform="translate(1319,1148)" d="m0 0h64v22l-38 1v20l36 1v22l-36 1v22h38v22l-1 1h-63z" fill="#030202"/>
<path transform="translate(1458,1146)" d="m0 0h13l15 2 8 4-1 9-3 13-5 1-12-3h-15l-10 3-8 5h-2l-2 4-5 8-2 7v9l4 12 9 10 12 5 6 1h11l14-3h5l4 20-2 4-12 4-7 1h-14l-11-2-13-5-10-6-10-9-7-10-5-11-2-13 1-13 5-14 7-10 10-10 14-8 12-4z" fill="#030202"/>
<path transform="translate(501,1147)" d="m0 0 5 1 7 10 14 25 5 8 3-4 14-25 8-14h30l-6 11-13 22-10 17-11 19-1 42-1 1h-27l-1-43-6-11-14-24-13-22-6-9v-3z" fill="#030202"/>
<path transform="translate(1010,1148)" d="m0 0h64v22h-40l1 21 36 1 1 4-1 18h-37v46h-24l-1-1v-110z" fill="#030202"/>
<path transform="translate(602,1148)" d="m0 0h79l-1 22h-27v89l-1 1h-24v-90h-26l-1-1z" fill="#030202"/>
<path transform="translate(1222,1148)" d="m0 0h79v22h-27v89l-1 1h-23l-1-1v-89h-26l-1-1z" fill="#030202"/>
<path transform="translate(1143,1172)" d="m0 0h13l10 4 8 7 5 8 2 6v14l-4 9-6 8-9 6-9 2h-9l-9-3-8-6-4-5-5-10-1-12 4-11 6-8 8-6z" fill="#FDFCFB"/>
<path transform="translate(846,1148)" d="m0 0h25v111l-1 1h-24z" fill="#030202"/>
<path transform="translate(752,1284)" d="m0 0h13l8 4 5 7 2 8v9l-2 9-4 6-8 4-6 1h-8l-1-1v-46z" fill="#FBF8F6"/>
<path transform="translate(782,1211)" d="m0 0h43v21h-43z" fill="#030202"/>
<path transform="translate(922,1296)" d="m0 0 5 1 1 4 7-5 7 1 5 6 2 12-2 9-4 6-2 1h-7l-6-4v17h-5z" fill="#030202"/>
<path transform="translate(1136,1296)" d="m0 0 4 1 1 4 5-4 6-1 5 3 3 3 1 4v16l-4 7-3 2h-7l-6-3v15l-5 1z" fill="#030202"/>
<path transform="translate(899,1296)" d="m0 0h6l6 4 3 6 1 4v7l-3 9-6 5-5 1-5-2-5-5-2-5v-14l4-7z" fill="#FBF8F6"/>
<path transform="translate(1065,1296)" d="m0 0h6l8 7 2 6v9l-3 7-5 6h-9l-6-4-3-6v-14l3-6 5-4z" fill="#FBF8F5"/>
<path transform="translate(407,1213)" d="m0 0h11l10 3 5 4 2 5-1 7-5 6-15 3h-6l-1-1z" fill="#FCFAF8"/>
<path transform="translate(408,1167)" d="m0 0 16 2 5 4 2 5v8l-4 7-4 2-6 1h-10l-1-4 1-24z" fill="#FBF9F7"/>
<path transform="translate(752,1284)" d="m0 0h13l8 4 5 7 2 8v9l-2 9-4 6-8 4-6 1h-8l-1-1v-46zm6 4-2 1v37l1 1h8l6-4 3-5 1-4v-13l-3-8-5-4z" fill="#030202"/>
<path transform="translate(854,1296)" d="m0 0 8 1 5 6 2 7v5l-1 1-18 1v5l4 4h8l5-2-1 4-4 3h-9l-6-4-3-6v-14l3-6 5-4z" fill="#030202"/>
<path transform="translate(796,1296)" d="m0 0 8 1 5 6 2 10-2 3-9 1-9-1 3 8 2 2h7l6-2-2 5-3 2h-9l-5-3-4-7v-13l3-7 5-4z" fill="#030202"/>
<path transform="translate(964,1296)" d="m0 0 7 1 5 4 3 8v6l-1 1h-19l2 7 3 3h7l6-2-2 5-2 2h-10l-6-4-3-7v-11l3-8 5-4z" fill="#030202"/>
<path transform="translate(1089,1296)" d="m0 0 4 1 1 2 4-2 5-1 4 2 2 3h4l2-4 5-1 4 2 2 5 1 28h-5l-1-26-1-3h-6l-3 3-1 26h-5l-1-27-1-2-6-1-2 2-1 5-1 23h-4z" fill="#030202"/>
<path transform="translate(1178,1296)" d="m0 0 7 1 5 5 1 3v26l-4-1 1-3-8 4h-7l-5-6v-6l4-5 10-5 5-1-3-6-1-1h-6l-4 3h-3l1-4z" fill="#030202"/>
<path transform="translate(1033,1284)" d="m0 0 8 1 7 6 1 7-4-2-5-5-5-2-6 3-3 5-1 3v14l3 8 5 4 7-1 7-8 2 2-1 5-8 7h-9l-6-4-5-8-1-3v-15l3-9 5-5z" fill="#030202"/>
<path transform="translate(933,1300)" d="m0 0 7 1 3 4 1 5v8l-3 7-4 3-5-2-4-4-1-5v-9l2-5z" fill="#F9F6F2"/>
<path transform="translate(1148,1300)" d="m0 0 5 1 4 7v11l-3 6-5 3-5-2-3-4-1-11 1-7z" fill="#FAF8F4"/>
<path transform="translate(1065,1296)" d="m0 0h6l8 7 2 6v9l-3 7-5 6h-9l-6-4-3-6v-14l3-6 5-4zm0 4-4 4-2 7 1 11 4 5 6 1 6-7v-13l-3-5-3-3z" fill="#030202"/>
<path transform="translate(1229,1296)" d="m0 0 4 1 3 9 4 17v3h2l1-11 4-18 4-1 1 3-7 28-4 12-4 4h-7v-3l6-2 2-5-3-7-6-26z" fill="#030202"/>
<path transform="translate(899,1296)" d="m0 0h6l6 4 3 6 1 4v7l-3 9-6 5-5 1-5-2-5-5-2-5v-14l4-7zm0 4-5 6-1 2v10l4 8 2 1h6l4-4 2-8-1-8-4-6z" fill="#030202"/>
<path transform="translate(1200,1296)" d="m0 0 4 1 1 4 5-4 5-1 5 3 1 1 1 7v24h-4l-1-23-1-6-5-1-6 2v28l-4 1-1-1z" fill="#030202"/>
<path transform="translate(816,1296)" d="m0 0h4l4 15 2 14 2-2 6-26 4-1 1 3-6 26-2 6-1 1h-5l-2-2-7-30z" fill="#030202"/>
<path transform="translate(876,1284)" d="m0 0h4l1 2v45l-5 1-1-47z" fill="#030202"/>
<path transform="translate(987,1296)" d="m0 0 4 1 3 4 3-4h5l1 2-1 2-9 3-1 27-5 1-1-35z" fill="#030202"/>
<path transform="translate(796,1300)" d="m0 0 7 1 4 7-1 4h-15v-6z" fill="#FAF7F4"/>
<path transform="translate(964,1300)" d="m0 0h5l5 6 1 5-1 1h-15v-6z" fill="#FAF7F4"/>
<path transform="translate(1185,1311)" d="m0 0h2v9l-3 5-3 2-7-1-1-7 4-4 8-2z" fill="#F7F3EF"/>
<path transform="translate(854,1300)" d="m0 0h5l5 6v5l-1 1h-14l-1-4 4-6z" fill="#FAF7F3"/>
</svg>
